<svg xmlns="http://www.w3.org/2000/svg" viewBox="0 0 512.001 231.451">
  <defs>
    <style>
      .cls-1 {
        fill: #bc753c;
      }
    </style>
  </defs>
  <g id="bread" transform="translate(0 -140.273)">
    <g id="Group_87" data-name="Group 87">
      <g id="Group_86" data-name="Group 86">
        <path id="Path_63" data-name="Path 63" class="cls-1" d="M414.19,349.79a8.208,8.208,0,0,0-9.678-6.41C365.548,351.3,315.58,355.31,256,355.31c-60.679,0-111.335-4.153-150.558-12.344-58.443-12.2-88.388-32.412-89-60.064-.648-29.208,12.126-55.4,36.942-75.737a8.208,8.208,0,0,0-10.406-12.7C14.113,218.124-.737,248.829.028,283.266c.807,36.3,35.144,61.8,102.059,75.768,40.325,8.42,92.11,12.69,153.914,12.69,60.677,0,111.744-4.125,151.781-12.258A8.2,8.2,0,0,0,414.19,349.79Z"/>
      </g>
    </g>
    <g id="Group_89" data-name="Group 89">
      <g id="Group_88" data-name="Group 88">
        <path id="Path_64" data-name="Path 64" class="cls-1" d="M479.826,204.3c-22.868-23.191-56.812-40.4-100.889-51.137a418.432,418.432,0,0,0-45.686-8.32,601.744,601.744,0,0,0-69.691-4.531.137.137,0,0,1-.028,0q-3.738-.037-7.532-.042c-11.666,0-23.279.286-34.515.847h0a519.719,519.719,0,0,0-64.963,7.116l-.013,0a363.99,363.99,0,0,0-38.632,9,252.548,252.548,0,0,0-45.432,17.994,8.208,8.208,0,0,0,7.6,14.55,228.325,228.325,0,0,1,35.273-14.563c7.666,20.484,15.625,48.8,15.625,78.115a27.359,27.359,0,1,0,54.719,0c0-34.568-8.364-67-16.583-90.531,14.959-2.31,30.94-3.975,47.7-4.97,9.425,20.985,22.776,57.431,22.776,95.5a27.359,27.359,0,1,0,54.719,0c0-36.727-9.334-71.117-18.682-96.355,17.891.505,34.984,1.714,51.017,3.607,8.816,20.21,21.557,55.81,21.557,92.748a27.36,27.36,0,0,0,54.72,0c0-25.583-4.44-52.526-13.18-80.277,33.928,10.005,60.272,24.358,78.431,42.773,18.764,19.028,27.99,41.594,27.424,67.074-.479,21.553-19.124,38.74-55.417,51.082a8.208,8.208,0,1,0,5.286,15.542c43.507-14.8,65.895-37.089,66.543-66.259C512.632,253.6,501.516,226.3,479.826,204.3ZM169.248,253.334a10.944,10.944,0,1,1-21.888,0c0-30.981-8.113-60.646-16.11-82.37l21.534-5.012C166.311,203.664,169.248,234.07,169.248,253.334Zm108.611,0a10.944,10.944,0,1,1-21.888,0c0-37.469-11.839-73.139-21.523-96.044l23.525-.451C267.494,181.091,277.859,216.057,277.859,253.334Zm97.667,10.943a10.956,10.956,0,0,1-10.944-10.944c0-33.519-9.23-65.409-18.843-89.539l25.122,4.572c10.358,29.573,15.609,58.137,15.609,84.967A10.956,10.956,0,0,1,375.526,264.277Z"/>
      </g>
    </g>
  </g>
</svg>
