<svg xmlns="http://www.w3.org/2000/svg" viewBox="0 0 58.746 56.39">
  <defs>
    <style>
      .cls-1 {
        fill: #bc753c;
      }
    </style>
  </defs>
  <g id="broccoli" transform="translate(0 -1.178)">
    <path id="Path_17" data-name="Path 17" class="cls-1" d="M24.1,16.108a1.016,1.016,0,0,0,.364.069,1,1,0,0,0,.365-1.932,2.9,2.9,0,1,1,2.113-5.4,1,1,0,0,0,.729-1.863A4.9,4.9,0,0,0,24.1,16.108Z"/>
    <path id="Path_18" data-name="Path 18" class="cls-1" d="M53.255,19.261a1,1,0,0,0-.515,1.317,2.9,2.9,0,1,1-5.316,2.328,1,1,0,0,0-1.832.8,4.9,4.9,0,1,0,8.98-3.934A1,1,0,0,0,53.255,19.261Z"/>
    <path id="Path_19" data-name="Path 19" class="cls-1" d="M39.287,16.484a1,1,0,0,0-.378,1.363A2.9,2.9,0,1,1,33.856,20.7a1,1,0,1,0-1.74.985,4.9,4.9,0,1,0,8.534-4.823A1,1,0,0,0,39.287,16.484Z"/>
    <path id="Path_20" data-name="Path 20" class="cls-1" d="M30.753,18.289A4.9,4.9,0,0,0,37.3,16.012a1,1,0,1,0-1.8-.871,2.9,2.9,0,1,1-5.224-2.528,1,1,0,0,0-1.8-.871A4.909,4.909,0,0,0,30.753,18.289Z"/>
    <path id="Path_21" data-name="Path 21" class="cls-1" d="M23.317,23.979a4.9,4.9,0,0,0,6.454-2.528,1,1,0,1,0-1.832-.8,2.9,2.9,0,0,1-5.319-2.324,1,1,0,1,0-1.832-.8A4.91,4.91,0,0,0,23.317,23.979Z"/>
    <path id="Path_22" data-name="Path 22" class="cls-1" d="M35.927,13.457c.159.015.318.022.477.022a4.9,4.9,0,0,0,3.772-8.021,1,1,0,1,0-1.543,1.273,2.9,2.9,0,0,1-.392,4.085,2.853,2.853,0,0,1-2.124.65,2.882,2.882,0,0,1-1.961-1.042A1,1,0,1,0,32.613,11.7,4.87,4.87,0,0,0,35.927,13.457Z"/>
    <path id="Path_23" data-name="Path 23" class="cls-1" d="M15.431,22.487a1,1,0,1,0-1.854-.752A2.9,2.9,0,0,1,8.2,19.553,1,1,0,1,0,6.345,18.8a4.9,4.9,0,0,0,9.086,3.686Z"/>
    <path id="Path_24" data-name="Path 24" class="cls-1" d="M57.277,19.629a5.181,5.181,0,0,0-1.312-5.282,5.308,5.308,0,0,0-3.784-1.524,4.606,4.606,0,0,0-1.09-1.667,4.772,4.772,0,0,0-4.741-1.129c0-.088.022-.173.022-.261a7.19,7.19,0,0,0-9.377-6.73,6.071,6.071,0,0,0-9.066.364A6.821,6.821,0,0,0,24.9,2.7a6.751,6.751,0,0,0-6.794,6.692v.039a6.752,6.752,0,0,0-2.579,2.149A5.343,5.343,0,0,0,10,12.675,5.373,5.373,0,0,0,4.642,13.95a5.194,5.194,0,0,0-1.559,3.722,4.7,4.7,0,0,0-1.69,1.066,4.622,4.622,0,0,0,0,6.614A4.684,4.684,0,0,0,3.2,26.461a5.481,5.481,0,0,0,1.642,3.878,5.6,5.6,0,0,0,3.87,1.606,4.08,4.08,0,0,0,1.207,2.584,4.1,4.1,0,0,0,4.122,1c4.112.115,9.709,9.159,10.445,19.714a2.508,2.508,0,0,0,2.5,2.322h5a2.509,2.509,0,0,0,2.493-2.229l.076-.7c1.37-12.692,4.224-19.208,8.482-19.4a5.593,5.593,0,0,0,6.632-.9,5.47,5.47,0,0,0,.946-1.237,4.788,4.788,0,0,0,3.32-1.357,4.626,4.626,0,0,0,1.382-3.6,5.276,5.276,0,0,0,1.867-1.186,5.179,5.179,0,0,0,.092-7.319Zm-37.8-8.6a1,1,0,0,0,.672-1.071,4.649,4.649,0,0,1-.039-.57A4.749,4.749,0,0,1,24.9,4.694a4.837,4.837,0,0,1,2.759.859,1,1,0,0,0,1.44-.334,4.063,4.063,0,0,1,6.783-.408,1,1,0,0,0,1.2.323,5.236,5.236,0,0,1,2.1-.44,5.133,5.133,0,0,1,5.181,5.071,4.914,4.914,0,0,1-.428,1.987s0,0,0,.007l-.076.182a.042.042,0,0,0,0,.01h0l0,0a.96.96,0,0,0-.031.117,1.052,1.052,0,0,0-.067.253c0,.021.007.04.007.061a.988.988,0,0,0,.038.307c.01.032.034.057.047.088a1.038,1.038,0,0,0,.128.239.98.98,0,0,0,.294.246,1.628,1.628,0,0,1,.87,1.432,1.649,1.649,0,0,1-.9,1.446,1,1,0,0,0-.373,1.425,3.1,3.1,0,0,1,.5,1.682,3.171,3.171,0,0,1-1.978,2.922,1,1,0,0,0-.549,1.281,3.1,3.1,0,0,1,.209,1.11,3.216,3.216,0,0,1-3.249,3.174,3.158,3.158,0,0,1-.548-.052c-.038-.006-.075-.015-.112-.022a3.289,3.289,0,0,1-.53-.153h0A3.243,3.243,0,0,1,36,26.157a1,1,0,0,0-.842-.488.978.978,0,0,0-.857.458,5.148,5.148,0,0,1-2.18,1.882c-.129.06-.259.117-.391.166-.065.024-.133.043-.2.064-.125.04-.25.081-.378.112-.087.021-.176.033-.265.05-.112.021-.223.046-.336.059a5.536,5.536,0,0,1-.593.037c-.149,0-.3-.01-.448-.022-.048,0-.1,0-.145-.009-.163-.018-.326-.047-.488-.08-.031-.006-.064-.01-.095-.017a5.334,5.334,0,0,1-.522-.148l-.045-.014a5.212,5.212,0,0,1-.55-.226h0A5.17,5.17,0,0,1,25.7,26.353a1,1,0,0,0-.664-.4,1.025,1.025,0,0,0-.146-.011.993.993,0,0,0-.607.206,4.085,4.085,0,0,1-.829.477c-.007,0-.014,0-.021,0a4.274,4.274,0,0,1-.791.259l-.027.007a3.774,3.774,0,0,1-.8.088,3.981,3.981,0,0,1-4.021-3.933,3.851,3.851,0,0,1,.769-2.306,1,1,0,0,0-.242-1.424,4.669,4.669,0,0,1-2.072-3.86,4.548,4.548,0,0,1,.054-.673c.008-.057.021-.113.031-.169a4.679,4.679,0,0,1,.122-.5c.018-.057.034-.114.054-.171a4.73,4.73,0,0,1,.216-.514c.016-.033.028-.067.046-.1A4.758,4.758,0,0,1,19.475,11.027ZM33.746,29.4a7.126,7.126,0,0,0,1.4-1.133,5.266,5.266,0,0,0,1.445.963,1.276,1.276,0,0,0,.1.11,4.062,4.062,0,0,0,.532.44,29.44,29.44,0,0,0-3.257,4.773A35.842,35.842,0,0,0,33.746,29.4Zm-6.49,10.523a30.265,30.265,0,0,0-5.428-8.4,2.984,2.984,0,0,0,.871-.587,2.948,2.948,0,0,0,.879-2.029,6.271,6.271,0,0,0,.686-.456c.142-.063.286-.122.423-.2a7.208,7.208,0,0,0,1.686,1.308A42.188,42.188,0,0,1,27.256,39.924ZM11.324,33.1a2.052,2.052,0,0,1-.553-2.012A1,1,0,0,0,9.8,29.834a1.048,1.048,0,0,0-.215.023,3.633,3.633,0,0,1-3.343-.944,3.471,3.471,0,0,1-.993-3.063,1,1,0,0,0-.864-1.162,2.725,2.725,0,0,1-1.6-.763,2.624,2.624,0,0,1,0-3.761,2.732,2.732,0,0,1,1.512-.751,1,1,0,0,0,.83-1.172,3.192,3.192,0,0,1,.907-2.865,3.363,3.363,0,0,1,3.8-.62,1,1,0,0,0,1.213-.277,3.228,3.228,0,0,1,.266-.3,3.334,3.334,0,0,1,3.264-.817c-.01.029-.013.06-.022.089a6.544,6.544,0,0,0-.18.724c-.018.088-.044.174-.058.263a6.568,6.568,0,0,0,2.109,5.939,5.8,5.8,0,0,0-.646,2.669,5.911,5.911,0,0,0,.031.6c.007.069.021.136.031.2.017.126.033.253.059.377.016.079.04.155.059.232.027.11.052.222.086.329.026.082.058.16.087.24.036.1.07.2.111.3s.076.159.114.239.086.185.135.274.092.153.138.23.1.172.157.255.106.146.16.218.116.159.179.236.121.137.183.2.129.145.2.214.135.126.2.189.142.132.216.193.146.114.22.17.153.117.233.172.157.1.237.15.164.1.249.149.166.086.25.128.176.087.266.126.174.07.262.1.186.071.281.1.182.054.274.079.193.052.291.074.189.037.285.053.2.033.3.046.195.019.293.026c.064,0,.126.014.19.017a.937.937,0,0,1-.272.537,1.03,1.03,0,0,1-1.016.24,1,1,0,0,0-1.258.736,2.079,2.079,0,0,1-.571,1.019,2.194,2.194,0,0,1-2.351.466,1,1,0,0,0-1.277.511,2.09,2.09,0,0,1-.434.619,2.152,2.152,0,0,1-.771.48s-.006.005-.01.006A2.2,2.2,0,0,1,11.324,33.1Zm21.242,21.32-.075.691a.51.51,0,0,1-.506.454h-5a.5.5,0,0,1-.5-.461c-.668-9.582-5.3-18.711-10.194-21.025.077.012.154.014.231.021s.14.016.209.019c.1,0,.191,0,.286,0,.068,0,.136,0,.2-.005.095-.007.189-.022.283-.035.067-.009.134-.015.2-.028.093-.018.184-.043.276-.067.066-.017.132-.03.2-.051.092-.029.181-.066.271-.1.061-.024.124-.044.184-.071.1-.044.191-.1.286-.147.049-.027.1-.049.148-.077.117-.069.228-.148.339-.229.022-.017.047-.03.069-.047a4.215,4.215,0,0,0,.38-.33,3.934,3.934,0,0,0,.277-.3,29.283,29.283,0,0,1,6.885,12.787,1,1,0,0,0,1.965-.144c.038-.383.835-8.664-.369-14.9.071.013.144.016.215.027.16.025.32.048.483.062.109.009.218.012.327.017s.19.015.286.015c.056,0,.11-.007.165-.008.113,0,.226-.009.339-.017.15-.01.3-.024.448-.044.106-.014.21-.03.315-.048.162-.029.323-.063.482-.1.052-.013.106-.019.158-.034a29.733,29.733,0,0,1-.807,10.663,1,1,0,0,0,1.9.616,42.305,42.305,0,0,1,5.367-9.92c.01.016.026.029.037.046a2.937,2.937,0,0,0,.384.475s.006.009.01.013a3.024,3.024,0,0,0,.43.347.149.149,0,0,1,.014.012c.077.051.161.085.242.129a2.9,2.9,0,0,0,.258.137c.046.019.1.027.141.044a2.665,2.665,0,0,0,.961.188,5.294,5.294,0,0,0,.362.59C34.554,35.994,33.081,49.648,32.566,54.423Zm23.217-28.9a3.312,3.312,0,0,1-1.772.9,1,1,0,0,0-.79,1.269,2.63,2.63,0,0,1-.687,2.619,2.806,2.806,0,0,1-2.375.75,1,1,0,0,0-1.086.623,3.447,3.447,0,0,1-.806,1.22,3.655,3.655,0,0,1-4.5.471l0,0a3.6,3.6,0,0,1-.6-.469,3.465,3.465,0,0,1-.841-1.32,1.014,1.014,0,0,0-.181-.305c-.021-.025-.047-.044-.07-.067a1,1,0,0,0-.19-.148.834.834,0,0,0-.1-.051.981.981,0,0,0-.214-.065.938.938,0,0,0-.12-.019c-.021,0-.042-.01-.063-.01a.983.983,0,0,0-.262.035H41.12a.924.924,0,0,1-.127.018,1.023,1.023,0,0,1-.748-.174,1.074,1.074,0,0,1-.122-.091.931.931,0,0,1-.17-.231c-.011-.021-.017-.045-.027-.067a.94.94,0,0,1-.042-.659.95.95,0,0,0,.03-.128,5.21,5.21,0,0,0,.9-.28c.082-.034.156-.081.236-.118a5.345,5.345,0,0,0,.607-.325c.1-.063.188-.136.282-.2a5.425,5.425,0,0,0,.463-.376c.091-.085.175-.174.259-.265a5.033,5.033,0,0,0,.37-.442c.075-.1.146-.2.213-.306a5.121,5.121,0,0,0,.283-.514c.053-.109.109-.215.154-.328a5.11,5.11,0,0,0,.194-.615c.027-.1.063-.2.083-.3a5.105,5.105,0,0,0,.1-.98,4.969,4.969,0,0,0-.093-.958,5.149,5.149,0,0,0,2.41-4.354A5.084,5.084,0,0,0,46,17.33a3.641,3.641,0,0,0,1.072-1.893,3.474,3.474,0,0,0,0-1.45c-.015-.075-.043-.144-.063-.218a3.755,3.755,0,0,0-.147-.454c-.035-.083-.08-.16-.121-.24a3.571,3.571,0,0,0-.214-.376c-.054-.08-.115-.154-.175-.23s-.1-.14-.154-.2a2.783,2.783,0,0,1,3.494.314,2.624,2.624,0,0,1,.759,1.468,1,1,0,0,0,1.165.827,3.36,3.36,0,0,1,2.95.9,3.183,3.183,0,0,1,.629,3.69,1,1,0,0,0,.286,1.237,3.394,3.394,0,0,1,.305.261,3.183,3.183,0,0,1,0,4.561Z"/>
  </g>
</svg>
