<svg xmlns="http://www.w3.org/2000/svg" viewBox="0 0 504.413 511.999">
  <defs>
    <style>
      .cls-1 {
        fill: #bc753c;
      }
    </style>
  </defs>
  <g id="cake" transform="translate(-3.793)">
    <g id="Group_44" data-name="Group 44">
      <g id="Group_43" data-name="Group 43">
        <path id="Path_25" data-name="Path 25" class="cls-1" d="M180.409,259.708a7.5,7.5,0,0,0-7.5,7.5v13.681a7.5,7.5,0,0,0,15,0V267.208A7.5,7.5,0,0,0,180.409,259.708Z"/>
      </g>
    </g>
    <g id="Group_46" data-name="Group 46">
      <g id="Group_45" data-name="Group 45">
        <path id="Path_26" data-name="Path 26" class="cls-1" d="M331.593,259.708a7.5,7.5,0,0,0-7.5,7.5v13.681a7.5,7.5,0,0,0,15,0V267.208A7.5,7.5,0,0,0,331.593,259.708Z"/>
      </g>
    </g>
    <g id="Group_48" data-name="Group 48">
      <g id="Group_47" data-name="Group 47">
        <path id="Path_27" data-name="Path 27" class="cls-1" d="M283.86,275.21a7.5,7.5,0,0,0-10.583.711,23.482,23.482,0,0,1-34.552,0,7.5,7.5,0,1,0-11.294,9.872,38.473,38.473,0,0,0,57.14,0A7.5,7.5,0,0,0,283.86,275.21Z"/>
      </g>
    </g>
    <g id="Group_50" data-name="Group 50">
      <g id="Group_49" data-name="Group 49">
        <path id="Path_28" data-name="Path 28" class="cls-1" d="M465.774,316.529V240.266a22.757,22.757,0,0,0,22.475-22.721,54.348,54.348,0,0,0-54.286-54.287h-3.072V100.753a20.134,20.134,0,0,0,18.6-20.043,46.271,46.271,0,0,0-46.218-46.218h-3.925C396.074,23.1,386.863,0,366.049,0s-30.025,23.1-33.3,34.493H289.3C286.026,23.1,276.814,0,256,0s-30.025,23.1-33.3,34.493H179.255C175.978,23.1,166.766,0,145.953,0s-30.024,23.1-33.3,34.493h-3.925A46.27,46.27,0,0,0,62.509,80.711a20.137,20.137,0,0,0,18.6,20.044v62.5H78.036A54.348,54.348,0,0,0,23.75,217.546a22.757,22.757,0,0,0,22.475,22.721V316.53A49.461,49.461,0,0,0,3.793,365.421a7.5,7.5,0,0,0,7.5,7.5H135.971c15.659,20.594,51.048,35.393,93.543,39.782v42.407H211.4A49.446,49.446,0,0,0,162.008,504.5a7.6,7.6,0,0,0,7.5,7.5H342.491a7.5,7.5,0,0,0,7.5-7.5,49.446,49.446,0,0,0-49.391-49.39H282.485V412.7c42.495-4.389,77.885-19.188,93.543-39.782H500.706a7.5,7.5,0,0,0,7.5-7.5A49.458,49.458,0,0,0,465.774,316.529ZM351.284,27.8C355.5,19.306,360.463,15,366.049,15s10.553,4.306,14.765,12.8a59.986,59.986,0,0,1,2.8,6.695H348.483A60.006,60.006,0,0,1,351.284,27.8Zm-110.048,0C245.448,19.306,250.416,15,256,15s10.553,4.306,14.765,12.8a60,60,0,0,1,2.8,6.695H238.436A59.8,59.8,0,0,1,241.236,27.8ZM145.953,15c5.586,0,10.554,4.306,14.766,12.8a59.989,59.989,0,0,1,2.8,6.695H128.441C131.374,26.176,136.987,15,145.953,15ZM77.509,80.711a31.254,31.254,0,0,1,31.218-31.218H403.275a31.253,31.253,0,0,1,31.218,31.218,5.129,5.129,0,0,1-7.508,4.457,46.632,46.632,0,0,0-44.381,0,31.739,31.739,0,0,1-30.016,0,46.712,46.712,0,0,0-44.381,0,32.473,32.473,0,0,1-30.016,0,46.156,46.156,0,0,0-44.381,0,31.784,31.784,0,0,1-30.016,0,46.137,46.137,0,0,0-41.745-1.332c-10.583,4.939-21.922,7.185-32.652,1.332a46.158,46.158,0,0,0-44.383,0A5.107,5.107,0,0,1,77.509,80.711ZM42.518,224.165a7.572,7.572,0,0,1-3.768-6.619,39.331,39.331,0,0,1,39.286-39.287H128.7a7.675,7.675,0,0,0,7.5-7.5,7.5,7.5,0,0,0-7.5-7.5h-32.6V96.545a31.359,31.359,0,0,1,14.912-1.817A32,32,0,0,1,122.147,98.3l.068.035a46.847,46.847,0,0,0,44.381,0,31.213,31.213,0,0,1,30.016,0,46.709,46.709,0,0,0,44.381,0,31.214,31.214,0,0,1,30.015,0,46.687,46.687,0,0,0,44.381,0c15.684-8.555,27.01,1.156,42.14,4.547a47.539,47.539,0,0,0,32.256-4.547l.046-.023a31.428,31.428,0,0,1,26.061-1.768v66.714H158.706a7.5,7.5,0,0,0-7.5,7.5,7.723,7.723,0,0,0,7.5,7.5h275.26a39.331,39.331,0,0,1,39.286,39.287,7.756,7.756,0,0,1-11.384,6.757,55.106,55.106,0,0,0-6.483-3,54.179,54.179,0,0,0-45.651,3c-17.642,9.623-30.475,1.326-47.24-4.069a54.729,54.729,0,0,0-42.66,4.068c-14.909,8.134-28.929,3.185-43.535-2.711a54.619,54.619,0,0,0-46.365,2.711c-16.888,9.214-30.776,1.23-47.24-4.068a54.741,54.741,0,0,0-42.661,4.068c-14.8,8.076-28.549,3.507-43.075-2.514a54.1,54.1,0,0,0-37.352-1.555c-.076.024-.15.056-.227.081a54.928,54.928,0,0,0-9.247,3.988A7.573,7.573,0,0,1,42.518,224.165ZM300.6,470.11A34.449,34.449,0,0,1,334.168,497H177.834A34.451,34.451,0,0,1,211.4,470.11Zm-56.087-15V413.8l.2.007q5.64.255,11.291.248t11.291-.248l.2-.007V455.11Zm29.838-56.741a245.864,245.864,0,0,1-36.7,0c-33.9-2.542-63.653-12-80.709-25.448H355.062C338.006,386.371,308.254,395.827,274.353,398.369ZM19.617,357.921A34.451,34.451,0,0,1,53.184,331.03H390.706a7.5,7.5,0,0,0,0-15H61.225V235.624c.114-.047.226-.1.34-.146a39.625,39.625,0,0,1,33.518,1.995,54.218,54.218,0,0,0,52.133,0,39.667,39.667,0,0,1,37.767,0,54.766,54.766,0,0,0,52.133,0,39.275,39.275,0,0,1,37.767,0,54.218,54.218,0,0,0,52.133,0,39.275,39.275,0,0,1,37.767,0,55.585,55.585,0,0,0,52.133,0,39.93,39.93,0,0,1,33.859-1.849V316.03H420.7a7.5,7.5,0,0,0,0,15h38.113a34.449,34.449,0,0,1,33.566,26.891Z"/>
      </g>
    </g>
  </g>
</svg>
