<svg xmlns="http://www.w3.org/2000/svg" viewBox="0 0 28.458 28.457">
  <defs>
    <style>
      .cls-1 {
        fill: #bc753c;
      }
    </style>
  </defs>
  <g id="chicken" transform="translate(0 0)">
    <path id="Path_29" data-name="Path 29" class="cls-1" d="M13.271,20.469a5.394,5.394,0,0,1-3.934-1.348h0C5.8,15.58,9.967,6.017,13.4,2.58A8.822,8.822,0,0,1,25.879,15.056C23.368,17.567,17.585,20.469,13.271,20.469Zm-3.227-2.055c2.972,2.97,11.967-.906,15.127-4.065A7.822,7.822,0,0,0,14.109,3.287c-3.158,3.161-7.034,12.157-4.065,15.127Z"/>
    <path id="Path_30" data-name="Path 30" class="cls-1" d="M6.454,28.457a3.283,3.283,0,0,1-3.289-3.164,3.293,3.293,0,0,1-2.2-5.621,3.379,3.379,0,0,1,4.578-.085l2.831-2.831a.5.5,0,1,1,.707.707l-3.209,3.21a.5.5,0,0,1-.388.146.5.5,0,0,1-.364-.2,2.2,2.2,0,0,0-.194-.241,2.352,2.352,0,0,0-3.252,0,2.29,2.29,0,0,0,1.947,3.891.5.5,0,0,1,.566.566,2.276,2.276,0,0,0,.641,1.949A2.3,2.3,0,1,0,8.08,23.535a1.737,1.737,0,0,0-.191-.156.569.569,0,0,1-.223-.384.521.521,0,0,1,.121-.407L11,19.378a.5.5,0,1,1,.707.707L8.872,22.916a3.3,3.3,0,0,1-2.418,5.541Z"/>
    <path id="Path_31" data-name="Path 31" class="cls-1" d="M24.989,10.531a.493.493,0,0,1-.239-.062.5.5,0,0,1-.2-.675,3.435,3.435,0,0,0-.283-3.16.5.5,0,0,1,.876-.483,4.4,4.4,0,0,1,.286,4.118A.5.5,0,0,1,24.989,10.531Z"/>
  </g>
</svg>
