<svg xmlns="http://www.w3.org/2000/svg" viewBox="0 0 512.001 511.999">
  <defs>
    <style>
      .cls-1 {
        fill: #bc753c;
      }
    </style>
  </defs>
  <g id="cookie" transform="translate(0 -0.002)">
    <g id="Group_52" data-name="Group 52">
      <g id="Group_51" data-name="Group 51">
        <path id="Path_32" data-name="Path 32" class="cls-1" d="M509.107,236.268a95.524,95.524,0,0,0-24.044-89.733,80.042,80.042,0,0,1-10.963-14.1,7.5,7.5,0,0,0-9.939-2.7,38.29,38.29,0,0,1-36.462-.354,37.821,37.821,0,0,1-19.883-30.6,7.5,7.5,0,0,0-6.853-6.853,37.913,37.913,0,0,1-30.075-18.942,38.48,38.48,0,0,1-1.806-35.551,7.5,7.5,0,0,0-1.735-8.713q-.954-.871-1.88-1.774A95.526,95.526,0,0,0,275.734,2.9a80.153,80.153,0,0,1-39.464,0,95.525,95.525,0,0,0-89.733,24.044A80.224,80.224,0,0,1,112.36,46.672,95.521,95.521,0,0,0,46.672,112.36,80.174,80.174,0,0,1,26.94,146.536,95.518,95.518,0,0,0,2.895,236.269a80.153,80.153,0,0,1,0,39.464,95.524,95.524,0,0,0,24.044,89.733,80.176,80.176,0,0,1,19.732,34.176,95.521,95.521,0,0,0,65.688,65.688,80.174,80.174,0,0,1,34.176,19.732A95.574,95.574,0,0,0,213.089,512a93.866,93.866,0,0,0,23.18-2.895,80.153,80.153,0,0,1,39.464,0A93.9,93.9,0,0,0,298.912,512a95.59,95.59,0,0,0,66.554-26.939,80.175,80.175,0,0,1,34.176-19.732,95.519,95.519,0,0,0,65.688-65.688,80.183,80.183,0,0,1,19.732-34.177,95.525,95.525,0,0,0,24.044-89.733A80.165,80.165,0,0,1,509.107,236.268Zm-14.54,43.169a80.428,80.428,0,0,1-20.245,75.553,95.225,95.225,0,0,0-23.435,40.59,80.428,80.428,0,0,1-55.309,55.309,95.229,95.229,0,0,0-40.59,23.435,80.43,80.43,0,0,1-75.553,20.245,95.217,95.217,0,0,0-46.87,0,80.423,80.423,0,0,1-75.553-20.245,95.229,95.229,0,0,0-40.59-23.435A80.426,80.426,0,0,1,61.113,395.58a95.219,95.219,0,0,0-23.435-40.59,80.427,80.427,0,0,1-20.245-75.553,95.224,95.224,0,0,0,0-46.87,80.423,80.423,0,0,1,20.245-75.553,95.222,95.222,0,0,0,23.435-40.591,80.426,80.426,0,0,1,55.308-55.31,95.213,95.213,0,0,0,40.59-23.435,80.428,80.428,0,0,1,75.553-20.244,95.22,95.22,0,0,0,46.869,0A80.453,80.453,0,0,1,353.42,36.191a53.663,53.663,0,0,0,4.486,44.31,52.568,52.568,0,0,0,35.783,25.539,52.414,52.414,0,0,0,26.84,36.516,53.427,53.427,0,0,0,44.437,3.25,94.787,94.787,0,0,0,9.357,11.207,80.429,80.429,0,0,1,20.245,75.553A95.217,95.217,0,0,0,494.567,279.437Z"/>
      </g>
    </g>
    <g id="Group_54" data-name="Group 54">
      <g id="Group_53" data-name="Group 53">
        <path id="Path_33" data-name="Path 33" class="cls-1" d="M166.073,234.348a7.5,7.5,0,0,0-7.5,7.5v16.275a7.5,7.5,0,0,0,15,0V241.85A7.5,7.5,0,0,0,166.073,234.348Z"/>
      </g>
    </g>
    <g id="Group_56" data-name="Group 56">
      <g id="Group_55" data-name="Group 55">
        <path id="Path_34" data-name="Path 34" class="cls-1" d="M345.927,234.348a7.5,7.5,0,0,0-7.5,7.5v16.275a7.5,7.5,0,0,0,15,0V241.85A7.5,7.5,0,0,0,345.927,234.348Z"/>
      </g>
    </g>
    <g id="Group_58" data-name="Group 58">
      <g id="Group_57" data-name="Group 57">
        <path id="Path_35" data-name="Path 35" class="cls-1" d="M288.207,252.44a7.5,7.5,0,0,0-10.585.71,29.356,29.356,0,0,1-43.246,0,7.5,7.5,0,0,0-11.3,9.874,44.351,44.351,0,0,0,65.838,0A7.5,7.5,0,0,0,288.207,252.44Z"/>
      </g>
    </g>
    <g id="Group_60" data-name="Group 60">
      <g id="Group_59" data-name="Group 59">
        <path id="Path_36" data-name="Path 36" class="cls-1" d="M194.243,64.947c-22.856,0-41.449,15.069-41.449,33.591s18.594,33.591,41.449,33.591,41.45-15.069,41.45-33.591S217.1,64.947,194.243,64.947Zm0,52.179c-14.336,0-26.447-8.512-26.447-18.588S179.907,79.95,194.243,79.95s26.448,8.512,26.448,18.588S208.578,117.126,194.243,117.126Z"/>
      </g>
    </g>
    <g id="Group_62" data-name="Group 62">
      <g id="Group_61" data-name="Group 61">
        <path id="Path_37" data-name="Path 37" class="cls-1" d="M125.407,307.513c-22.856,0-41.449,15.069-41.449,33.591S102.552,374.7,125.407,374.7s41.449-15.069,41.449-33.591S148.262,307.513,125.407,307.513Zm0,52.18c-14.336,0-26.447-8.512-26.447-18.588s12.111-18.588,26.447-18.588,26.447,8.512,26.447,18.588S139.742,359.693,125.407,359.693Z"/>
      </g>
    </g>
    <g id="Group_64" data-name="Group 64">
      <g id="Group_63" data-name="Group 63">
        <path id="Path_38" data-name="Path 38" class="cls-1" d="M360.9,349.543c-22.855,0-41.449,15.069-41.449,33.591s18.594,33.591,41.449,33.591,41.449-15.069,41.449-33.591S383.755,349.543,360.9,349.543Zm0,52.179c-14.336,0-26.447-8.512-26.447-18.588s12.111-18.588,26.447-18.588,26.447,8.512,26.447,18.588S375.236,401.722,360.9,401.722Z"/>
      </g>
    </g>
    <g id="Group_66" data-name="Group 66">
      <g id="Group_65" data-name="Group 65">
        <path id="Path_39" data-name="Path 39" class="cls-1" d="M228.73,383.485c-17.221,0-31.231,11.546-31.231,25.737s14.01,25.737,31.231,25.737,31.23-11.546,31.23-25.737S245.951,383.485,228.73,383.485Zm0,36.474c-8.8,0-16.229-4.917-16.229-10.735s7.431-10.735,16.229-10.735,16.228,4.917,16.228,10.735S237.526,419.959,228.73,419.959Z"/>
      </g>
    </g>
    <g id="Group_68" data-name="Group 68">
      <g id="Group_67" data-name="Group 67">
        <path id="Path_40" data-name="Path 40" class="cls-1" d="M326.336,110c-17.221,0-31.23,11.546-31.23,25.737s14.009,25.737,31.23,25.737,31.231-11.546,31.231-25.737S343.557,110,326.336,110Zm0,36.472c-8.8,0-16.228-4.916-16.228-10.735S317.539,125,326.336,125s16.229,4.916,16.229,10.735S335.133,146.472,326.336,146.472Z"/>
      </g>
    </g>
    <g id="Group_70" data-name="Group 70">
      <g id="Group_69" data-name="Group 69">
        <path id="Path_41" data-name="Path 41" class="cls-1" d="M91.458,179.158c-17.221,0-31.231,11.546-31.231,25.737s14.01,25.737,31.231,25.737,31.23-11.545,31.23-25.737S108.679,179.158,91.458,179.158Zm0,36.472c-8.8,0-16.229-4.915-16.229-10.735s7.431-10.735,16.229-10.735,16.228,4.917,16.228,10.735S100.256,215.63,91.459,215.63Z"/>
      </g>
    </g>
    <g id="Group_72" data-name="Group 72">
      <g id="Group_71" data-name="Group 71">
        <path id="Path_42" data-name="Path 42" class="cls-1" d="M432.836,244.415c-17.221,0-31.231,11.546-31.231,25.737s14.01,25.737,31.231,25.737,31.23-11.546,31.23-25.737S450.057,244.415,432.836,244.415Zm0,36.472c-8.8,0-16.229-4.916-16.229-10.735s7.431-10.735,16.229-10.735,16.228,4.917,16.228,10.735S441.633,280.887,432.836,280.887Z"/>
      </g>
    </g>
  </g>
</svg>
