<svg xmlns="http://www.w3.org/2000/svg" viewBox="0 0 291.74 321.203">
  <defs>
    <style>
      .cls-1 {
        fill: #bc753c;
      }
    </style>
  </defs>
  <g id="shopping-bag" transform="translate(-14.73)">
    <g id="Group_39" data-name="Group 39">
      <path id="Path_15" data-name="Path 15" class="cls-1" d="M306.4,313.2l-24-223.6a7.325,7.325,0,0,0-7.2-6.4H230.8V69.6a69.6,69.6,0,1,0-139.2,0V83.2H46a7.325,7.325,0,0,0-7.2,6.4l-24,223.6a7.168,7.168,0,0,0,1.6,5.6,6.45,6.45,0,0,0,5.2,2.4h278a6.45,6.45,0,0,0,5.2-2.4A7.168,7.168,0,0,0,306.4,313.2ZM223.6,123.6a6.4,6.4,0,1,1-6.4,6.4,6.318,6.318,0,0,1,6.4-6.4ZM106,69.6a55.2,55.2,0,1,1,110.4,0V83.2H106Zm-7.2,54a6.4,6.4,0,1,1-6.4,6.4,6.318,6.318,0,0,1,6.4-6.4ZM30,306.4,52.4,97.2H91.6v13.2a20.4,20.4,0,1,0,13.6,0V97.2H215.6v13.2a20.4,20.4,0,1,0,13.6,0V97.2H270l22.4,209.2Z"/>
    </g>
  </g>
</svg>
